<?xml version="1.0" encoding="UTF-8"?>
<svg width="750px" height="750px" viewBox="0 0 750 750" version="1.1" xmlns="http://www.w3.org/2000/svg" xmlns:xlink="http://www.w3.org/1999/xlink">
    <!-- Generator: Sketch 51.3 (57544) - http://www.bohemiancoding.com/sketch -->
    <title>Artboard</title>
    <desc>Created with Sketch.</desc>
    <defs></defs>
    <g id="Artboard" stroke="none" stroke-width="1" fill="none" fill-rule="evenodd">
        <g id="cat-body" transform="translate(235.000000, 242.000000)" fill-rule="nonzero" stroke="#000000">
            <path d="M134.695313,30.6992188 C77.3203125,45.3847656 32.7203776,77.3317057 0.895507812,126.540039 C40.0478516,136.306966 156.844401,164.270182 351.285156,210.429688 C346.972656,186.247396 338.927083,162.729167 327.148438,139.875 C327.148438,120.564453 329.980469,126.765625 334.730469,102.320313 C339.480469,77.875 339.480469,67.4277344 334.730469,64.0195313 C331.563802,61.7473958 319.134115,67.4270833 297.441406,81.0585938 C265.480469,51.1302083 228.226563,34.34375 185.679688,30.6992188 C165.429688,8.74609375 165.429688,0.453125 158.15625,0.453125 C153.307292,0.453125 145.486979,10.5351562 134.695313,30.6992188 Z" id="Path" stroke-width="5" stroke-linecap="round"></path>
            <ellipse id="Oval-Copy" fill="#000000" transform="translate(218.461213, 135.711343) rotate(27.000000) translate(-218.461213, -135.711343) " cx="218.461213" cy="135.711343" rx="6.53391678" ry="9"></ellipse>
            <ellipse id="Oval-Copy-2" fill="#000000" transform="translate(109.118228, 101.998461) rotate(22.000000) translate(-109.118228, -101.998461) " cx="109.118228" cy="101.998461" rx="6.97393625" ry="8.31760425"></ellipse>
            <path d="M132.763672,109.830078 C132.889974,117.57487 138.769531,118.789062 150.402344,113.472656 C155.095703,124.279297 161.591797,127.855469 170.927734,124.279297" id="Path-2" stroke-width="5" stroke-linecap="round"></path>
        </g>
        <g id="arms-up" transform="translate(233.000000, 303.000000)" fill-rule="nonzero">
            <g id="right-hand" transform="translate(236.000000, 53.000000)">
                <path d="M3.7265625,69.7304688 C-3.88671875,25.6015625 2.17903646,2.61653646 21.9238281,0.775390625 C34.8417969,-2.36002604 45.5716146,6.30533854 54.1132813,26.7714844" id="Path-4" stroke="#000000" stroke-width="5" stroke-linecap="round"></path>
                <g id="right-paw" transform="translate(12.000000, 14.000000)" fill="#EA7E95">
                    <ellipse id="Oval-3" cx="8.5" cy="5.5" rx="3.5" ry="5.5"></ellipse>
                    <ellipse id="Oval-3-Copy-2" transform="translate(24.401680, 9.291673) rotate(6.000000) translate(-24.401680, -9.291673) " cx="24.4016795" cy="9.29167297" rx="3" ry="4"></ellipse>
                    <circle id="Oval-4" cx="2" cy="20" r="2"></circle>
                    <ellipse id="Oval-3-Copy" cx="14" cy="25" rx="6" ry="7"></ellipse>
                </g>
            </g>
            <g id="left-arm">
                <path d="M54.96875,29.671875 C47.4453125,8.07682292 36.249349,-1.58203125 21.3808594,0.6953125 C1.95768229,2.90364583 -3.75716146,24.4781901 4.23632812,65.4189453 L11.9931641,67.7675781" id="Path-3" stroke="#000000" stroke-width="5" fill="#FFFFFF" stroke-linecap="round"></path>
                <g id="left-paw" transform="translate(13.000000, 15.000000)" fill="#EA7E95">
                    <circle id="Oval" cx="8.5" cy="3.5" r="3.5"></circle>
                    <ellipse id="Oval-Copy-3" transform="translate(2.440277, 15.835686) rotate(11.000000) translate(-2.440277, -15.835686) " cx="2.44027686" cy="15.8356859" rx="2" ry="2.5"></ellipse>
                    <ellipse id="Oval-Copy-4" cx="23.4693568" cy="9.05107116" rx="2.92244989" ry="2.41100242"></ellipse>
                    <ellipse id="Oval-2" cx="14.5" cy="23.5" rx="4.5" ry="7.5"></ellipse>
                </g>
            </g>
        </g>
        <path d="M-11.5,308.5 L235.5,368.014357 M586.061138,452.481648 L789.5,501.5" id="Line" stroke="#000000" stroke-width="5" stroke-linecap="round" fill-rule="nonzero"></path>
    </g>
</svg>